# xmcd
#
# Track frame offsets: 
#        187
#        6540
#        28017
#        47127
#        66937
#        69192
#        92240
#        115480
#        136625
#        140000
#        159260
#        181680
#        198792
#        219777
#        240242
#        263167
#        287317
#        309457
#
# Disc length: 4303 seconds
#
# Revision: 4
# Processed by: cddbd v1.5.2PL0 Copyright (c) Steve Scherf et al.
# Submitted via: ExactAudioCopy v1.3
#
DISCID=ef10cd12
DTITLE=Mary J. Blige - Share My World
DYEAR=1997
DGENRE=R&B
TTITLE0=Intro
TTITLE1=I Can Love You
TTITLE2=Love Is All We Need
TTITLE3=Round And Round
TTITLE4=Share My World (Interlude)
TTITLE5=Share My World
TTITLE6=Seven Days
TTITLE7=It's On (featuring R. Kelly)
TTITLE8=Thank You Lord (Interlude)
TTITLE9=Missing You
TTITLE10=Everything
TTITLE11=Keep Your Head
TTITLE12=Can't Get You Off My Mind
TTITLE13=Get To Know You Better
TTITLE14=Searching
TTITLE15=Our Love
TTITLE16=Not Gon' Cry
TTITLE17=(You Make Me Feel Like A) Natural Woman
EXTD=Year - 1997
EXTT0=
EXTT1=
EXTT2=
EXTT3=
EXTT4=
EXTT5=
EXTT6=
EXTT7=
EXTT8=
EXTT9=
EXTT10=
EXTT11=
EXTT12=
EXTT13=
EXTT14=
EXTT15=
EXTT16=
EXTT17=
PLAYORDER=
